<?xml version="1.0" encoding="utf-8"?>
<!-- Generator: Adobe Illustrator 25.2.0, SVG Export Plug-In . SVG Version: 6.00 Build 0)  -->
<svg version="1.1" id="Layer_1" xmlns="http://www.w3.org/2000/svg" xmlns:xlink="http://www.w3.org/1999/xlink" x="0px" y="0px"
	 viewBox="0 0 1920 1080" style="enable-background:new 0 0 1920 1080;" xml:space="preserve">
<style type="text/css">
	.st0{fill:none;}
	.st1{fill:#E9E9E9;}
	.st2{opacity:0.3;}
</style>
<path class="st0" d="M493.3,0C423-79.6,320.2-129.8,205.9-129.8c-211.5,0-383.5,172-383.5,383.5c0,135.7,70.9,255.2,177.6,323.4V0
	H493.3z"/>
<path class="st1" d="M1268.7,214.3c47,5.8,92.8,17.5,136.7,35.1c63,25.2,119.6,61.3,168.2,107.2c48.6,45.9,86.8,99.4,113.4,159
	c8.3,18.5,15.3,37.3,21.1,56.4c81.8-12.2,155.3-50.3,211.8-105.7V0h-599.9c-33,56.6-52,122.5-52,192.7
	C1268.1,199.9,1268.3,207.1,1268.7,214.3z"/>
<path class="st1" d="M1501.9,546.9c-45.8-19.4-86.9-47.1-122.2-82.4c-35.3-35.3-63-76.4-82.4-122.2c-17.1-40.5-27-83.2-29.6-127.1
	c-22.4-2.7-45.2-4.2-68.4-4.2c-138.9,0-265.5,50.9-359.9,134.1c25.6,29.9,46.3,63.4,61.6,99.7c20.1,47.4,30.2,97.8,30.2,149.7
	s-10.2,102.3-30.2,149.7c-19.4,45.8-47.1,86.9-82.4,122.2c-27.2,27.2-57.9,49.9-91.5,67.7c29.5,55.3,69.5,104.7,117.5,145.8H1554
	c106.6-91.4,173.7-223.3,173.7-369.7c0-47.5-7.1-93.5-20.3-137.1c-18.4,2.7-37,4-55.8,4C1599.7,577.2,1549.3,567,1501.9,546.9z"/>
<path class="st1" d="M670,710.3c0-67.5,14-133,41.6-194.7c26.7-59.6,64.8-113.1,113.4-159c4.2-3.9,8.4-7.8,12.7-11.6
	c-61.9-72-150-120.9-249.4-131.7c1.4,13.3,2.1,26.8,2.1,40.4c0,51.9-10.2,102.3-30.2,149.7c-19.4,45.8-47.1,86.9-82.4,122.2
	c-35.3,35.3-76.4,63-122.2,82.4c-47.4,20-97.8,30.2-149.7,30.2c-13.6,0-27.1-0.7-40.4-2.1C186.3,828.1,349.4,978,546.8,978
	c64.5,0,125.4-16,178.8-44.3c-5-9.4-9.6-19-14-28.7C684,843.3,670,777.8,670,710.3z"/>
<path class="st1" d="M192.5,444.9c19.4-45.8,47.1-86.9,82.4-122.2c35.3-35.3,76.4-63,122.2-82.4c47.4-20.1,97.8-30.2,149.7-30.2
	c13.6,0,27.1,0.7,40.4,2.1C578.4,131.3,544.5,57.9,493.3,0H0v577.1c48.5,31,104.4,51.4,164.4,57.9c-1.4-13.3-2.1-26.8-2.1-40.4
	C162.3,542.6,172.5,492.3,192.5,444.9z"/>
<path class="st1" d="M671,710.3c0,80.1,20,155.8,55.6,222.9c121-64.6,203.6-192.1,203.6-338.6c0-94.8-34.6-181.6-91.7-248.6
	C735.5,437.1,671,566.7,671,710.3z"/>
<path class="st1" d="M588.2,212.2c37.3,4,73.5,13.3,108.2,28c45.8,19.4,86.9,47.1,122.2,82.4c7,7,13.6,14.1,20,21.5
	c45.5-40.1,97.4-71.9,154.7-94.8c65.3-26.1,134.6-39.3,206-39.3c23,0,45.8,1.4,68.3,4.1c-0.4-7.1-0.6-14.3-0.6-21.5
	c0-51.9,10.2-102.3,30.2-149.7c6.3-14.8,13.4-29.2,21.4-43H494.9c27.3,31,49.2,65.9,65.4,104C574.9,138.7,584.3,174.9,588.2,212.2z"
	/>
<path class="st1" d="M589.4,253.7c0-13.7-0.7-27.2-2.1-40.5c-13.3-1.4-26.8-2.1-40.5-2.1c-211.5,0-383.5,172-383.5,383.5
	c0,13.7,0.7,27.2,2.1,40.5c13.3,1.4,26.8,2.1,40.5,2.1C417.4,637.2,589.4,465.1,589.4,253.7z"/>
<path class="st1" d="M726.2,934.7c-9.7,5.1-19.6,9.8-29.7,14.1c-47.4,20-97.8,30.2-149.7,30.2c-51.9,0-102.3-10.2-149.7-30.2
	c-45.8-19.4-86.9-47.1-122.2-82.4c-35.3-35.3-63-76.4-82.4-122.2c-14.7-34.7-24-70.9-28-108.2c-37.3-4-73.5-13.3-108.2-28
	c-19.6-8.3-38.4-18.2-56.3-29.5V1080h842.8c-6-5.2-11.9-10.5-17.7-16C784.7,1025.8,751.5,982.5,726.2,934.7z"/>
<path class="st1" d="M1651.6,576.2c18.8,0,37.4-1.4,55.5-4c-57.3-187.9-228.7-330.7-438.3-356.8
	C1280.5,416.3,1447.7,576.2,1651.6,576.2z"/>
<path class="st1" d="M1708.5,573c13.4,44.4,20.2,90.3,20.2,137.3c0,67.5-14,133-41.6,194.7c-26.7,59.6-64.8,113.1-113.4,159
	c-5.8,5.5-11.7,10.8-17.7,16H1920V467.9c-34.5,33.7-74.5,60.3-118.8,79C1771.4,559.6,1740.4,568.3,1708.5,573z"/>
<path class="st1" d="M355.6,608c45.8-19.4,86.9-47.1,122.2-82.4c35.3-35.3,63-76.4,82.4-122.2c20.1-47.4,30.2-97.8,30.2-149.7
	c0-13.6-0.7-27.1-2.1-40.4c-0.3,0-0.7-0.1-1-0.1c1.4,13.3,2.1,26.8,2.1,40.5c0,211.5-172,383.5-383.5,383.5
	c-13.7,0-27.2-0.7-40.5-2.1c0,0.3,0.1,0.7,0.1,1c13.3,1.4,26.8,2.1,40.4,2.1C257.8,638.2,308.2,628,355.6,608z"/>
<path class="st2" d="M355.6,608c45.8-19.4,86.9-47.1,122.2-82.4c35.3-35.3,63-76.4,82.4-122.2c20.1-47.4,30.2-97.8,30.2-149.7
	c0-13.6-0.7-27.1-2.1-40.4c-0.3,0-0.7-0.1-1-0.1c1.4,13.3,2.1,26.8,2.1,40.5c0,211.5-172,383.5-383.5,383.5
	c-13.7,0-27.2-0.7-40.5-2.1c0,0.3,0.1,0.7,0.1,1c13.3,1.4,26.8,2.1,40.4,2.1C257.8,638.2,308.2,628,355.6,608z"/>
<path class="st1" d="M164.5,636c0-0.3-0.1-0.7-0.1-1c-60-6.5-115.9-26.9-164.4-57.9v1.4c17.8,11.3,36.6,21.2,56.3,29.5
	C90.9,622.6,127.2,632,164.5,636z"/>
<path class="st2" d="M164.5,636c0-0.3-0.1-0.7-0.1-1c-60-6.5-115.9-26.9-164.4-57.9v1.4c17.8,11.3,36.6,21.2,56.3,29.5
	C90.9,622.6,127.2,632,164.5,636z"/>
<path class="st1" d="M587.2,212.1c0.3,0,0.7,0.1,1,0.1c-4-37.3-13.3-73.5-28-108.2c-16.1-38.1-38.1-73-65.4-104h-1.6
	C544.5,57.9,578.4,131.3,587.2,212.1z"/>
<path class="st2" d="M587.2,212.1c0.3,0,0.7,0.1,1,0.1c-4-37.3-13.3-73.5-28-108.2c-16.1-38.1-38.1-73-65.4-104h-1.6
	C544.5,57.9,578.4,131.3,587.2,212.1z"/>
<path class="st1" d="M163.3,594.5c0-211.5,172-383.5,383.5-383.5c13.7,0,27.2,0.7,40.5,2.1c0-0.3-0.1-0.7-0.1-1
	c-13.3-1.4-26.8-2.1-40.4-2.1c-51.9,0-102.3,10.2-149.7,30.2c-45.8,19.4-86.9,47.1-122.2,82.4c-35.3,35.3-63,76.4-82.4,122.2
	c-20.1,47.4-30.2,97.8-30.2,149.7c0,13.6,0.7,27.1,2.1,40.4c0.3,0,0.7,0.1,1,0.1C164,621.7,163.3,608.2,163.3,594.5z"/>
<path class="st2" d="M163.3,594.5c0-211.5,172-383.5,383.5-383.5c13.7,0,27.2,0.7,40.5,2.1c0-0.3-0.1-0.7-0.1-1
	c-13.3-1.4-26.8-2.1-40.4-2.1c-51.9,0-102.3,10.2-149.7,30.2c-45.8,19.4-86.9,47.1-122.2,82.4c-35.3,35.3-63,76.4-82.4,122.2
	c-20.1,47.4-30.2,97.8-30.2,149.7c0,13.6,0.7,27.1,2.1,40.4c0.3,0,0.7,0.1,1,0.1C164,621.7,163.3,608.2,163.3,594.5z"/>
<path class="st1" d="M837.7,345c0.3-0.3,0.6-0.5,0.9-0.8c-6.4-7.4-13-14.6-20-21.5c-35.3-35.3-76.4-63-122.2-82.4
	c-34.7-14.7-70.9-24-108.2-28c0,0.3,0.1,0.7,0.1,1C687.7,224,775.9,272.9,837.7,345z"/>
<path class="st2" d="M837.7,345c0.3-0.3,0.6-0.5,0.9-0.8c-6.4-7.4-13-14.6-20-21.5c-35.3-35.3-76.4-63-122.2-82.4
	c-34.7-14.7-70.9-24-108.2-28c0,0.3,0.1,0.7,0.1,1C687.7,224,775.9,272.9,837.7,345z"/>
<path class="st1" d="M901.1,744.2c20.1-47.4,30.2-97.8,30.2-149.7s-10.2-102.3-30.2-149.7c-15.4-36.4-36.1-69.8-61.6-99.7
	c-0.3,0.3-0.6,0.5-0.9,0.8c57.2,67,91.7,153.9,91.7,248.6c0,146.5-82.6,274.1-203.6,338.6c0.2,0.3,0.4,0.7,0.5,1
	c33.6-17.8,64.3-40.5,91.5-67.7C854,831.1,881.7,790,901.1,744.2z"/>
<path class="st2" d="M901.1,744.2c20.1-47.4,30.2-97.8,30.2-149.7s-10.2-102.3-30.2-149.7c-15.4-36.4-36.1-69.8-61.6-99.7
	c-0.3,0.3-0.6,0.5-0.9,0.8c57.2,67,91.7,153.9,91.7,248.6c0,146.5-82.6,274.1-203.6,338.6c0.2,0.3,0.4,0.7,0.5,1
	c33.6-17.8,64.3-40.5,91.5-67.7C854,831.1,881.7,790,901.1,744.2z"/>
<path class="st1" d="M546.8,978c-197.4,0-360.5-150-381.3-341.9c-0.3,0-0.7-0.1-1-0.1c4,37.3,13.3,73.5,28,108.2
	c19.4,45.8,47.1,86.9,82.4,122.2c35.3,35.3,76.4,63,122.2,82.4c47.4,20,97.8,30.2,149.7,30.2c51.9,0,102.3-10.2,149.7-30.2
	c10.1-4.3,20-9,29.7-14.1c-0.2-0.3-0.4-0.7-0.5-1C672.2,962,611.3,978,546.8,978z"/>
<path class="st2" d="M546.8,978c-197.4,0-360.5-150-381.3-341.9c-0.3,0-0.7-0.1-1-0.1c4,37.3,13.3,73.5,28,108.2
	c19.4,45.8,47.1,86.9,82.4,122.2c35.3,35.3,76.4,63,122.2,82.4c47.4,20,97.8,30.2,149.7,30.2c51.9,0,102.3-10.2,149.7-30.2
	c10.1-4.3,20-9,29.7-14.1c-0.2-0.3-0.4-0.7-0.5-1C672.2,962,611.3,978,546.8,978z"/>
<path class="st1" d="M588.3,213.3c0-0.3-0.1-0.7-0.1-1c-0.3,0-0.7-0.1-1-0.1c0,0.3,0.1,0.7,0.1,1C587.7,213.2,588,213.2,588.3,213.3
	z"/>
<path class="st2" d="M588.3,213.3c0-0.3-0.1-0.7-0.1-1c-0.3,0-0.7-0.1-1-0.1c0,0.3,0.1,0.7,0.1,1C587.7,213.2,588,213.2,588.3,213.3
	z"/>
<path class="st2" d="M588.3,213.3c0-0.3-0.1-0.7-0.1-1c-0.3,0-0.7-0.1-1-0.1c0,0.3,0.1,0.7,0.1,1C587.7,213.2,588,213.2,588.3,213.3
	z"/>
<path class="st1" d="M165.4,635c-0.3,0-0.7-0.1-1-0.1c0,0.3,0.1,0.7,0.1,1c0.3,0,0.7,0.1,1,0.1C165.5,635.7,165.5,635.4,165.4,635z"
	/>
<path class="st2" d="M165.4,635c-0.3,0-0.7-0.1-1-0.1c0,0.3,0.1,0.7,0.1,1c0.3,0,0.7,0.1,1,0.1C165.5,635.7,165.5,635.4,165.4,635z"
	/>
<path class="st2" d="M165.4,635c-0.3,0-0.7-0.1-1-0.1c0,0.3,0.1,0.7,0.1,1c0.3,0,0.7,0.1,1,0.1C165.5,635.7,165.5,635.4,165.4,635z"
	/>
<path class="st1" d="M1651.6,576.2c-203.8,0-371.1-159.9-382.8-360.8c-0.3,0-0.7-0.1-1-0.1c2.5,43.9,12.4,86.6,29.6,127.1
	c19.4,45.8,47.1,86.9,82.4,122.2c35.3,35.3,76.4,63,122.2,82.4c47.4,20,97.8,30.2,149.7,30.2c18.8,0,37.5-1.3,55.8-4
	c-0.1-0.3-0.2-0.7-0.3-1C1689,574.8,1670.4,576.2,1651.6,576.2z"/>
<path class="st2" d="M1651.6,576.2c-203.8,0-371.1-159.9-382.8-360.8c-0.3,0-0.7-0.1-1-0.1c2.5,43.9,12.4,86.6,29.6,127.1
	c19.4,45.8,47.1,86.9,82.4,122.2c35.3,35.3,76.4,63,122.2,82.4c47.4,20,97.8,30.2,149.7,30.2c18.8,0,37.5-1.3,55.8-4
	c-0.1-0.3-0.2-0.7-0.3-1C1689,574.8,1670.4,576.2,1651.6,576.2z"/>
<path class="st1" d="M1267.1,192.7c0,7.2,0.2,14.4,0.6,21.5c0.3,0,0.7,0.1,1,0.1c-0.4-7.2-0.6-14.4-0.6-21.6c0-70.2,19-136,52-192.7
	h-1.3c-8,13.8-15.2,28.2-21.4,43C1277.2,90.4,1267.1,140.7,1267.1,192.7z"/>
<path class="st2" d="M1267.1,192.7c0,7.2,0.2,14.4,0.6,21.5c0.3,0,0.7,0.1,1,0.1c-0.4-7.2-0.6-14.4-0.6-21.6c0-70.2,19-136,52-192.7
	h-1.3c-8,13.8-15.2,28.2-21.4,43C1277.2,90.4,1267.1,140.7,1267.1,192.7z"/>
<path class="st1" d="M1708.2,572c0.1,0.3,0.2,0.7,0.3,1c31.9-4.7,62.9-13.4,92.7-26c44.3-18.7,84.2-45.3,118.8-79v-1.6
	C1863.5,521.7,1790,559.8,1708.2,572z"/>
<path class="st2" d="M1708.2,572c0.1,0.3,0.2,0.7,0.3,1c31.9-4.7,62.9-13.4,92.7-26c44.3-18.7,84.2-45.3,118.8-79v-1.6
	C1863.5,521.7,1790,559.8,1708.2,572z"/>
<path class="st1" d="M1687.1,905c27.6-61.7,41.6-127.2,41.6-194.7c0-46.9-6.8-92.9-20.2-137.3c-0.4,0.1-0.7,0.1-1.1,0.2
	c13.2,43.6,20.3,89.6,20.3,137.1c0,146.4-67.1,278.3-173.7,369.7h1.9c6-5.2,11.9-10.5,17.7-16
	C1622.2,1018.1,1660.4,964.6,1687.1,905z"/>
<path class="st2" d="M1687.1,905c27.6-61.7,41.6-127.2,41.6-194.7c0-46.9-6.8-92.9-20.2-137.3c-0.4,0.1-0.7,0.1-1.1,0.2
	c13.2,43.6,20.3,89.6,20.3,137.1c0,146.4-67.1,278.3-173.7,369.7h1.9c6-5.2,11.9-10.5,17.7-16
	C1622.2,1018.1,1660.4,964.6,1687.1,905z"/>
<path class="st1" d="M1199.3,211c23.2,0,46,1.4,68.4,4.2c0-0.4,0-0.7-0.1-1.1c-22.5-2.7-45.3-4.1-68.3-4.1
	c-71.5,0-140.8,13.2-206,39.3c-57.3,22.9-109.2,54.8-154.7,94.8c0.3,0.3,0.5,0.6,0.8,0.9C933.8,262,1060.4,211,1199.3,211z"/>
<path class="st2" d="M1199.3,211c23.2,0,46,1.4,68.4,4.2c0-0.4,0-0.7-0.1-1.1c-22.5-2.7-45.3-4.1-68.3-4.1
	c-71.5,0-140.8,13.2-206,39.3c-57.3,22.9-109.2,54.8-154.7,94.8c0.3,0.3,0.5,0.6,0.8,0.9C933.8,262,1060.4,211,1199.3,211z"/>
<path class="st1" d="M727.2,934.2c-0.3,0.2-0.7,0.4-1,0.5c25.4,47.7,58.5,91.1,98.9,129.3c5.8,5.5,11.7,10.8,17.7,16h1.9
	C796.7,1038.8,756.7,989.4,727.2,934.2z"/>
<path class="st2" d="M727.2,934.2c-0.3,0.2-0.7,0.4-1,0.5c25.4,47.7,58.5,91.1,98.9,129.3c5.8,5.5,11.7,10.8,17.7,16h1.9
	C796.7,1038.8,756.7,989.4,727.2,934.2z"/>
<path class="st1" d="M1573.6,356.5c-48.6-45.9-105.2-82-168.2-107.2c-43.9-17.6-89.7-29.3-136.7-35.1c0,0.4,0,0.7,0.1,1.1
	c209.7,26.1,381,168.9,438.3,356.8c0.4-0.1,0.7-0.1,1.1-0.2c-5.8-19.1-12.9-38-21.1-56.4C1660.4,456,1622.2,402.5,1573.6,356.5z"/>
<path class="st2" d="M1573.6,356.5c-48.6-45.9-105.2-82-168.2-107.2c-43.9-17.6-89.7-29.3-136.7-35.1c0,0.4,0,0.7,0.1,1.1
	c209.7,26.1,381,168.9,438.3,356.8c0.4-0.1,0.7-0.1,1.1-0.2c-5.8-19.1-12.9-38-21.1-56.4C1660.4,456,1622.2,402.5,1573.6,356.5z"/>
<path class="st1" d="M825.1,356.5c-48.6,45.9-86.8,99.4-113.4,159C684,577.2,670,642.7,670,710.3s14,133,41.6,194.7
	c4.4,9.7,9,19.3,14,28.7c0.3-0.2,0.7-0.4,1-0.6C691.1,866,671,790.3,671,710.3c0-143.6,64.5-273.2,167.5-364.4
	c-0.3-0.3-0.5-0.6-0.8-0.9C833.5,348.8,829.2,352.6,825.1,356.5z"/>
<path class="st2" d="M825.1,356.5c-48.6,45.9-86.8,99.4-113.4,159C684,577.2,670,642.7,670,710.3s14,133,41.6,194.7
	c4.4,9.7,9,19.3,14,28.7c0.3-0.2,0.7-0.4,1-0.6C691.1,866,671,790.3,671,710.3c0-143.6,64.5-273.2,167.5-364.4
	c-0.3-0.3-0.5-0.6-0.8-0.9C833.5,348.8,829.2,352.6,825.1,356.5z"/>
<path class="st1" d="M725.6,933.7c0.2,0.3,0.4,0.7,0.5,1c0.3-0.2,0.7-0.4,1-0.5c-0.2-0.3-0.4-0.7-0.5-1
	C726.3,933.3,726,933.5,725.6,933.7z"/>
<path class="st2" d="M725.6,933.7c0.2,0.3,0.4,0.7,0.5,1c0.3-0.2,0.7-0.4,1-0.5c-0.2-0.3-0.4-0.7-0.5-1
	C726.3,933.3,726,933.5,725.6,933.7z"/>
<path class="st2" d="M725.6,933.7c0.2,0.3,0.4,0.7,0.5,1c0.3-0.2,0.7-0.4,1-0.5c-0.2-0.3-0.4-0.7-0.5-1
	C726.3,933.3,726,933.5,725.6,933.7z"/>
<path class="st1" d="M838.5,345.9c0.3-0.3,0.6-0.5,0.9-0.8c-0.3-0.3-0.5-0.6-0.8-0.9c-0.3,0.3-0.6,0.5-0.9,0.8
	C838,345.3,838.3,345.6,838.5,345.9z"/>
<path class="st2" d="M838.5,345.9c0.3-0.3,0.6-0.5,0.9-0.8c-0.3-0.3-0.5-0.6-0.8-0.9c-0.3,0.3-0.6,0.5-0.9,0.8
	C838,345.3,838.3,345.6,838.5,345.9z"/>
<path class="st2" d="M838.5,345.9c0.3-0.3,0.6-0.5,0.9-0.8c-0.3-0.3-0.5-0.6-0.8-0.9c-0.3,0.3-0.6,0.5-0.9,0.8
	C838,345.3,838.3,345.6,838.5,345.9z"/>
<path class="st1" d="M1707.4,573.1c0.4-0.1,0.7-0.1,1.1-0.2c-0.1-0.3-0.2-0.7-0.3-1c-0.4,0.1-0.7,0.1-1.1,0.2
	C1707.2,572.5,1707.3,572.8,1707.4,573.1z"/>
<path class="st2" d="M1707.4,573.1c0.4-0.1,0.7-0.1,1.1-0.2c-0.1-0.3-0.2-0.7-0.3-1c-0.4,0.1-0.7,0.1-1.1,0.2
	C1707.2,572.5,1707.3,572.8,1707.4,573.1z"/>
<path class="st2" d="M1707.4,573.1c0.4-0.1,0.7-0.1,1.1-0.2c-0.1-0.3-0.2-0.7-0.3-1c-0.4,0.1-0.7,0.1-1.1,0.2
	C1707.2,572.5,1707.3,572.8,1707.4,573.1z"/>
<path class="st1" d="M1268.7,215.3c0-0.4,0-0.7-0.1-1.1c-0.3,0-0.7-0.1-1-0.1c0,0.4,0,0.7,0.1,1.1
	C1268.1,215.2,1268.4,215.3,1268.7,215.3z"/>
<path class="st2" d="M1268.7,215.3c0-0.4,0-0.7-0.1-1.1c-0.3,0-0.7-0.1-1-0.1c0,0.4,0,0.7,0.1,1.1
	C1268.1,215.2,1268.4,215.3,1268.7,215.3z"/>
<path class="st2" d="M1268.7,215.3c0-0.4,0-0.7-0.1-1.1c-0.3,0-0.7-0.1-1-0.1c0,0.4,0,0.7,0.1,1.1
	C1268.1,215.2,1268.4,215.3,1268.7,215.3z"/>
</svg>
