<?xml version="1.0" encoding="utf-8"?>
<!-- Generator: Adobe Illustrator 25.2.0, SVG Export Plug-In . SVG Version: 6.00 Build 0)  -->
<svg version="1.1" id="Layer_1" xmlns="http://www.w3.org/2000/svg" xmlns:xlink="http://www.w3.org/1999/xlink" x="0px" y="0px"
	 viewBox="0 0 1920 1080" style="enable-background:new 0 0 1920 1080;" xml:space="preserve">
<style type="text/css">
	.st0{fill:#E9E9E9;}
	.st1{opacity:0.3;fill:none;stroke:#000000;stroke-miterlimit:10;}
	.st2{fill:none;}
	.st3{fill:none;stroke:#000000;stroke-miterlimit:10;}
</style>
<rect class="st0" width="1920" height="1080"/>
<circle class="st1" cx="546.8" cy="594.5" r="384"/>
<path class="st2" d="M670.5,710.3c0-276,236.8-499.7,528.8-499.7c23.3,0,46.3,1.4,68.9,4.2c-0.4-7.3-0.6-14.7-0.6-22.1
	c0-70.2,18.9-136,51.8-192.7H494.2c59.6,67.7,95.7,156.4,95.7,253.7c0,212.1-171.9,384-384,384c-75.8,0-146.4-22-205.9-59.8V1080
	h843.6C737.3,988.6,670.5,856.8,670.5,710.3z"/>
<path class="st2" d="M1728.2,710.3c0,146.5-66.7,278.3-173,369.7H1920V467.3c-56.6,55.3-130.2,93.3-212.2,105.3
	C1721.1,616.3,1728.2,662.5,1728.2,710.3z"/>
<path class="st3" d="M589.9,253.7c0-97.2-36.1-186-95.7-253.7H0v577.8c59.5,37.9,130.2,59.8,205.9,59.8
	C418,637.7,589.9,465.8,589.9,253.7z"/>
<path class="st3" d="M1319.3,0c-32.9,56.6-51.8,122.4-51.8,192.7c0,7.4,0.2,14.8,0.6,22.1c210.7,25.9,382.5,169,439.6,357.8
	c82-12,155.6-50,212.2-105.3V0H1319.3z"/>
<path class="st3" d="M1728.2,710.3c0-47.8-7.1-94-20.3-137.7c-18.4,2.7-37.1,4.1-56.2,4.1c-204.7,0-371.9-160.1-383.4-361.9
	c-22.5-2.8-45.5-4.2-68.9-4.2c-292.1,0-528.8,223.7-528.8,499.7c0,146.5,66.7,278.3,173,369.7h711.5
	C1661.4,988.6,1728.2,856.8,1728.2,710.3z"/>
<path class="st3" d="M1651.6,576.7c19.1,0,37.9-1.4,56.2-4.1c-57.2-188.8-228.9-331.9-439.6-357.8
	C1279.7,416.5,1446.9,576.7,1651.6,576.7z"/>
</svg>
