<svg xmlns="http://www.w3.org/2000/svg" viewBox="0 0 1557.11 838.17"><g id="Layer_2" data-name="Layer 2"><g id="레이어_1" data-name="레이어 1"><path d="M1387.29,498.52h-144.2l128.16,128.09H693.93c-30.83-8.8-55.84-36.24-66.51-72h258.7V515.87c0-105.44-76.66-191.22-170.88-191.22S544.35,410.43,544.35,515.87c0,41.25,11.78,79.46,31.71,110.74H455V319.17h96.12V235.69H455A553.45,553.45,0,0,1,461.07,158c9.59-61.51,25.29-73.52,26.79-74.52,7,0,28.2,0,43.11,50.1,10.28,34.5,10.39,70.75,10.39,71.11l83.47.27c0-11.74-1.1-116.29-55.83-171.24A112.26,112.26,0,0,0,487.86,0c-23,0-44.2,9.12-61.28,26.38-52.33,52.87-55.19,178.37-55.07,209.31h-66.2v83.48h66.22V626.61H255.05V232.49H171.57V626.61H83.48V112.07H0v598H1371.25L1243.09,838.17h144.2l169.82-169.82Zm-672-96.39c40.33,0,74.78,31.3,87.82,75H627.42C640.45,433.43,674.9,402.13,715.24,402.13Z"/><circle cx="213.31" cy="156.12" r="44.05" transform="translate(-12.56 293.45) rotate(-67.5)"/></g></g></svg>